<?xml version="1.0" encoding="UTF-8" standalone="no"?>
<!DOCTYPE svg PUBLIC "-//W3C//DTD SVG 1.1//EN"
 "http://www.w3.org/Graphics/SVG/1.1/DTD/svg11.dtd">
<!-- Generated by graphviz version 9.0.0 (20230911.1827)
 -->
<!-- Title: G Pages: 1 -->
<svg width="2054pt" height="227pt"
 viewBox="0.00 0.00 2054.00 227.47" xmlns="http://www.w3.org/2000/svg" xmlns:xlink="http://www.w3.org/1999/xlink">
<g id="graph0" class="graph" transform="scale(1 1) rotate(0) translate(4 223.47)">
<title>G</title>
<polygon fill="white" stroke="none" points="-4,4 -4,-223.47 2050,-223.47 2050,4 -4,4"/>
<g id="clust1" class="cluster">
<title>cluster_G</title>
<path fill="#808080" fill-opacity="0.094118" stroke="black" d="M20,-8C20,-8 2026,-8 2026,-8 2032,-8 2038,-14 2038,-20 2038,-20 2038,-199.47 2038,-199.47 2038,-205.47 2032,-211.47 2026,-211.47 2026,-211.47 20,-211.47 20,-211.47 14,-211.47 8,-205.47 8,-199.47 8,-199.47 8,-20 8,-20 8,-14 14,-8 20,-8"/>
</g>
<g id="clust3" class="cluster">
<title>cluster_src__android__App</title>
<path fill="#808080" fill-opacity="0.094118" stroke="black" d="M1680,-16C1680,-16 2018,-16 2018,-16 2024,-16 2030,-22 2030,-28 2030,-28 2030,-191.47 2030,-191.47 2030,-197.47 2024,-203.47 2018,-203.47 2018,-203.47 1680,-203.47 1680,-203.47 1674,-203.47 1668,-197.47 1668,-191.47 1668,-191.47 1668,-28 1668,-28 1668,-22 1674,-16 1680,-16"/>
<text text-anchor="middle" x="1849" y="-186.17" font-family="Times New Roman,serif" font-size="14.00">src.android.App</text>
</g>
<g id="clust2" class="cluster">
<title>cluster_src__android</title>
<path fill="#808080" fill-opacity="0.094118" stroke="black" d="M1496,-107.86C1496,-107.86 1648,-107.86 1648,-107.86 1654,-107.86 1660,-113.86 1660,-119.86 1660,-119.86 1660,-191.47 1660,-191.47 1660,-197.47 1654,-203.47 1648,-203.47 1648,-203.47 1496,-203.47 1496,-203.47 1490,-203.47 1484,-197.47 1484,-191.47 1484,-191.47 1484,-119.86 1484,-119.86 1484,-113.86 1490,-107.86 1496,-107.86"/>
<text text-anchor="middle" x="1572" y="-186.17" font-family="Times New Roman,serif" font-size="14.00">src.android</text>
</g>
<g id="clust4" class="cluster">
<title>cluster_src__web</title>
<path fill="#808080" fill-opacity="0.094118" stroke="black" d="M1340,-107.86C1340,-107.86 1464,-107.86 1464,-107.86 1470,-107.86 1476,-113.86 1476,-119.86 1476,-119.86 1476,-191.47 1476,-191.47 1476,-197.47 1470,-203.47 1464,-203.47 1464,-203.47 1340,-203.47 1340,-203.47 1334,-203.47 1328,-197.47 1328,-191.47 1328,-191.47 1328,-119.86 1328,-119.86 1328,-113.86 1334,-107.86 1340,-107.86"/>
<text text-anchor="middle" x="1402" y="-186.17" font-family="Times New Roman,serif" font-size="14.00">src.web</text>
</g>
<g id="clust5" class="cluster">
<title>cluster_src__web__App</title>
<path fill="#808080" fill-opacity="0.094118" stroke="black" d="M1034,-107.86C1034,-107.86 1308,-107.86 1308,-107.86 1314,-107.86 1320,-113.86 1320,-119.86 1320,-119.86 1320,-191.47 1320,-191.47 1320,-197.47 1314,-203.47 1308,-203.47 1308,-203.47 1034,-203.47 1034,-203.47 1028,-203.47 1022,-197.47 1022,-191.47 1022,-191.47 1022,-119.86 1022,-119.86 1022,-113.86 1028,-107.86 1034,-107.86"/>
<text text-anchor="middle" x="1171" y="-186.17" font-family="Times New Roman,serif" font-size="14.00">src.web.App</text>
</g>
<g id="clust6" class="cluster">
<title>cluster_src__windows</title>
<path fill="#808080" fill-opacity="0.094118" stroke="black" d="M840,-107.86C840,-107.86 1002,-107.86 1002,-107.86 1008,-107.86 1014,-113.86 1014,-119.86 1014,-119.86 1014,-191.47 1014,-191.47 1014,-197.47 1008,-203.47 1002,-203.47 1002,-203.47 840,-203.47 840,-203.47 834,-203.47 828,-197.47 828,-191.47 828,-191.47 828,-119.86 828,-119.86 828,-113.86 834,-107.86 840,-107.86"/>
<text text-anchor="middle" x="921" y="-186.17" font-family="Times New Roman,serif" font-size="14.00">src.windows</text>
</g>
<g id="clust7" class="cluster">
<title>cluster_src__windows__App</title>
<path fill="#808080" fill-opacity="0.094118" stroke="black" d="M448,-107.86C448,-107.86 808,-107.86 808,-107.86 814,-107.86 820,-113.86 820,-119.86 820,-119.86 820,-191.47 820,-191.47 820,-197.47 814,-203.47 808,-203.47 808,-203.47 448,-203.47 448,-203.47 442,-203.47 436,-197.47 436,-191.47 436,-191.47 436,-119.86 436,-119.86 436,-113.86 442,-107.86 448,-107.86"/>
<text text-anchor="middle" x="628" y="-186.17" font-family="Times New Roman,serif" font-size="14.00">src.windows.App</text>
</g>
<!-- src -->
<g id="node1" class="node">
<title>src</title>
<ellipse fill="#ffffff" fill-opacity="0.698039" stroke="black" cx="399" cy="-143.79" rx="27" ry="18"/>
<text text-anchor="middle" x="399" y="-138.37" font-family="Times New Roman,serif" font-size="14.00" fill="#000000">src</text>
</g>
<!-- src__android -->
<g id="node2" class="node">
<title>src__android</title>
<ellipse fill="#ffffff" fill-opacity="0.698039" stroke="black" cx="301" cy="-143.79" rx="53.06" ry="18"/>
<text text-anchor="middle" x="301" y="-138.37" font-family="Times New Roman,serif" font-size="14.00" fill="#000000">src.android</text>
</g>
<!-- src__web -->
<g id="node3" class="node">
<title>src__web</title>
<ellipse fill="#ffffff" fill-opacity="0.698039" stroke="black" cx="190" cy="-143.79" rx="40.09" ry="18"/>
<text text-anchor="middle" x="190" y="-138.37" font-family="Times New Roman,serif" font-size="14.00" fill="#000000">src.web</text>
</g>
<!-- src__windows -->
<g id="node4" class="node">
<title>src__windows</title>
<ellipse fill="#ffffff" fill-opacity="0.698039" stroke="black" cx="74" cy="-143.79" rx="58.05" ry="18"/>
<text text-anchor="middle" x="74" y="-138.37" font-family="Times New Roman,serif" font-size="14.00" fill="#000000">src.windows</text>
</g>
<!-- src__android__App -->
<g id="node5" class="node">
<title>src__android__App</title>
<ellipse fill="#eaff99" fill-opacity="0.698039" stroke="black" cx="1572" cy="-143.79" rx="79.73" ry="27.93"/>
<text text-anchor="middle" x="1572" y="-146.24" font-family="Times New Roman,serif" font-size="14.00" fill="#000000">App</text>
<text text-anchor="middle" x="1572" y="-130.49" font-family="Times New Roman,serif" font-size="14.00" fill="#000000">(srcandroid.py:8)</text>
</g>
<!-- src__android__App____init__ -->
<g id="node6" class="node">
<title>src__android__App____init__</title>
<ellipse fill="#e0ff65" fill-opacity="0.698039" stroke="black" cx="1942" cy="-143.79" rx="79.73" ry="27.93"/>
<text text-anchor="middle" x="1942" y="-146.24" font-family="Times New Roman,serif" font-size="14.00" fill="#000000">__init__</text>
<text text-anchor="middle" x="1942" y="-130.49" font-family="Times New Roman,serif" font-size="14.00" fill="#000000">(srcandroid.py:9)</text>
</g>
<!-- src__android__App__init -->
<g id="node7" class="node">
<title>src__android__App__init</title>
<ellipse fill="#e0ff65" fill-opacity="0.698039" stroke="black" cx="1938" cy="-51.93" rx="84.5" ry="27.93"/>
<text text-anchor="middle" x="1938" y="-54.38" font-family="Times New Roman,serif" font-size="14.00" fill="#000000">init</text>
<text text-anchor="middle" x="1938" y="-38.63" font-family="Times New Roman,serif" font-size="14.00" fill="#000000">(srcandroid.py:20)</text>
</g>
<!-- src__android__App____init__&#45;&gt;src__android__App__init -->
<g id="edge1" class="edge">
<title>src__android__App____init__&#45;&gt;src__android__App__init</title>
<path fill="none" stroke="#000000" d="M1940.8,-115.83C1940.46,-108.17 1940.08,-99.68 1939.72,-91.47"/>
<polygon fill="#000000" stroke="#000000" points="1943.22,-91.53 1939.28,-81.7 1936.23,-91.84 1943.22,-91.53"/>
</g>
<!-- src__android__App__run -->
<g id="node8" class="node">
<title>src__android__App__run</title>
<ellipse fill="#e0ff65" fill-opacity="0.698039" stroke="black" cx="1760" cy="-143.79" rx="84.5" ry="27.93"/>
<text text-anchor="middle" x="1760" y="-146.24" font-family="Times New Roman,serif" font-size="14.00" fill="#000000">run</text>
<text text-anchor="middle" x="1760" y="-130.49" font-family="Times New Roman,serif" font-size="14.00" fill="#000000">(srcandroid.py:16)</text>
</g>
<!-- src__web__App -->
<g id="node9" class="node">
<title>src__web__App</title>
<ellipse fill="#99ffc1" fill-opacity="0.698039" stroke="black" cx="1402" cy="-143.79" rx="65.94" ry="27.93"/>
<text text-anchor="middle" x="1402" y="-146.24" font-family="Times New Roman,serif" font-size="14.00" fill="#000000">App</text>
<text text-anchor="middle" x="1402" y="-130.49" font-family="Times New Roman,serif" font-size="14.00" fill="#000000">(srcweb.py:4)</text>
</g>
<!-- src__web__App____init__ -->
<g id="node10" class="node">
<title>src__web__App____init__</title>
<ellipse fill="#65ffa3" fill-opacity="0.698039" stroke="black" cx="1246" cy="-143.79" rx="65.94" ry="27.93"/>
<text text-anchor="middle" x="1246" y="-146.24" font-family="Times New Roman,serif" font-size="14.00" fill="#000000">__init__</text>
<text text-anchor="middle" x="1246" y="-130.49" font-family="Times New Roman,serif" font-size="14.00" fill="#000000">(srcweb.py:6)</text>
</g>
<!-- src__web__App__run -->
<g id="node11" class="node">
<title>src__web__App__run</title>
<ellipse fill="#65ffa3" fill-opacity="0.698039" stroke="black" cx="1096" cy="-143.79" rx="65.94" ry="27.93"/>
<text text-anchor="middle" x="1096" y="-146.24" font-family="Times New Roman,serif" font-size="14.00" fill="#000000">run</text>
<text text-anchor="middle" x="1096" y="-130.49" font-family="Times New Roman,serif" font-size="14.00" fill="#000000">(srcweb.py:9)</text>
</g>
<!-- src__windows__App -->
<g id="node12" class="node">
<title>src__windows__App</title>
<ellipse fill="#99c1ff" fill-opacity="0.698039" stroke="black" cx="921" cy="-143.79" rx="85.03" ry="27.93"/>
<text text-anchor="middle" x="921" y="-146.24" font-family="Times New Roman,serif" font-size="14.00" fill="#000000">App</text>
<text text-anchor="middle" x="921" y="-130.49" font-family="Times New Roman,serif" font-size="14.00" fill="#000000">(srcwindows.py:3)</text>
</g>
<!-- src__windows__App____init__ -->
<g id="node13" class="node">
<title>src__windows__App____init__</title>
<ellipse fill="#65a3ff" fill-opacity="0.698039" stroke="black" cx="727" cy="-143.79" rx="85.03" ry="27.93"/>
<text text-anchor="middle" x="727" y="-146.24" font-family="Times New Roman,serif" font-size="14.00" fill="#000000">__init__</text>
<text text-anchor="middle" x="727" y="-130.49" font-family="Times New Roman,serif" font-size="14.00" fill="#000000">(srcwindows.py:4)</text>
</g>
<!-- src__windows__App__run -->
<g id="node14" class="node">
<title>src__windows__App__run</title>
<ellipse fill="#65a3ff" fill-opacity="0.698039" stroke="black" cx="534" cy="-143.79" rx="89.8" ry="27.93"/>
<text text-anchor="middle" x="534" y="-146.24" font-family="Times New Roman,serif" font-size="14.00" fill="#000000">run</text>
<text text-anchor="middle" x="534" y="-130.49" font-family="Times New Roman,serif" font-size="14.00" fill="#000000">(srcwindows.py:10)</text>
</g>
</g>
</svg>

