<?xml version="1.0" encoding="UTF-8" standalone="no"?>
<!DOCTYPE svg PUBLIC "-//W3C//DTD SVG 1.1//EN"
 "http://www.w3.org/Graphics/SVG/1.1/DTD/svg11.dtd">
<!-- Generated by graphviz version 9.0.0 (20230911.1827)
 -->
<!-- Title: G Pages: 1 -->
<svg width="465pt" height="180pt"
 viewBox="0.00 0.00 465.00 179.61" xmlns="http://www.w3.org/2000/svg" xmlns:xlink="http://www.w3.org/1999/xlink">
<g id="graph0" class="graph" transform="scale(1 1) rotate(0) translate(4 175.61)">
<title>G</title>
<polygon fill="white" stroke="none" points="-4,4 -4,-175.61 461,-175.61 461,4 -4,4"/>
<g id="clust1" class="cluster">
<title>cluster_G</title>
<path fill="#808080" fill-opacity="0.094118" stroke="black" d="M20,-8C20,-8 437,-8 437,-8 443,-8 449,-14 449,-20 449,-20 449,-151.61 449,-151.61 449,-157.61 443,-163.61 437,-163.61 437,-163.61 20,-163.61 20,-163.61 14,-163.61 8,-157.61 8,-151.61 8,-151.61 8,-20 8,-20 8,-14 14,-8 20,-8"/>
</g>
<g id="clust2" class="cluster">
<title>cluster_packer</title>
<path fill="#808080" fill-opacity="0.094118" stroke="black" d="M119,-16C119,-16 239,-16 239,-16 245,-16 251,-22 251,-28 251,-28 251,-99.61 251,-99.61 251,-105.61 245,-111.61 239,-111.61 239,-111.61 119,-111.61 119,-111.61 113,-111.61 107,-105.61 107,-99.61 107,-99.61 107,-28 107,-28 107,-22 113,-16 119,-16"/>
<text text-anchor="middle" x="179" y="-94.31" font-family="Times New Roman,serif" font-size="14.00">packer</text>
</g>
<!-- index -->
<g id="node1" class="node">
<title>index</title>
<ellipse fill="#ffffff" fill-opacity="0.698039" stroke="black" cx="410" cy="-137.61" rx="30.61" ry="18"/>
<text text-anchor="middle" x="410" y="-132.19" font-family="Times New Roman,serif" font-size="14.00" fill="#000000">index</text>
</g>
<!-- main -->
<g id="node2" class="node">
<title>main</title>
<ellipse fill="#ffffff" fill-opacity="0.698039" stroke="black" cx="333" cy="-137.61" rx="28.11" ry="18"/>
<text text-anchor="middle" x="333" y="-132.19" font-family="Times New Roman,serif" font-size="14.00" fill="#000000">main</text>
</g>
<!-- p4a -->
<g id="node3" class="node">
<title>p4a</title>
<ellipse fill="#ffffff" fill-opacity="0.698039" stroke="black" cx="260" cy="-137.61" rx="27" ry="18"/>
<text text-anchor="middle" x="260" y="-132.19" font-family="Times New Roman,serif" font-size="14.00" fill="#000000">p4a</text>
</g>
<!-- packer -->
<g id="node4" class="node">
<title>packer</title>
<ellipse fill="#ffffff" fill-opacity="0.698039" stroke="black" cx="179" cy="-137.61" rx="35.6" ry="18"/>
<text text-anchor="middle" x="179" y="-132.19" font-family="Times New Roman,serif" font-size="14.00" fill="#000000">packer</text>
</g>
<!-- packer__pack -->
<g id="node6" class="node">
<title>packer__pack</title>
<ellipse fill="#ccfefe" fill-opacity="0.698039" stroke="black" cx="179" cy="-51.93" rx="63.82" ry="27.93"/>
<text text-anchor="middle" x="179" y="-54.38" font-family="Times New Roman,serif" font-size="14.00" fill="#000000">pack</text>
<text text-anchor="middle" x="179" y="-38.63" font-family="Times New Roman,serif" font-size="14.00" fill="#000000">(packer.py:8)</text>
</g>
<!-- packer&#45;&gt;packer__pack -->
<g id="edge1" class="edge">
<title>packer&#45;&gt;packer__pack</title>
<path fill="none" stroke="#000000" d="M179,-119.27C179,-111.15 179,-101.13 179,-91.36"/>
<polygon fill="#000000" stroke="#000000" points="182.5,-91.65 179,-81.65 175.5,-91.65 182.5,-91.65"/>
</g>
<!-- syncbooker -->
<g id="node5" class="node">
<title>syncbooker</title>
<ellipse fill="#ffffff" fill-opacity="0.698039" stroke="black" cx="71" cy="-137.61" rx="54.56" ry="18"/>
<text text-anchor="middle" x="71" y="-132.19" font-family="Times New Roman,serif" font-size="14.00" fill="#000000">syncbooker</text>
</g>
</g>
</svg>

